# xmcd
#
# Track frame offsets:
#	150
#	13866
#	31910
#	46263
#	62648
#	78674
#	101210
#	115408
#	133355
#	148878
#	161918
#	177876
#
# Disc length: 2611 seconds
#
# Revision: 0
# Processed by: cddbd v1.5.2PL0 Copyright (c) Steve Scherf et al.
# Submitted via: dBpowerAMP V4.0
#
DISCID=b10a310c
DTITLE=Terri Clark - The Best Of Terri Clark
DYEAR=1900
DGENRE=Country
TTITLE0=When Boy Meets Girl
TTITLE1=Suddenly Single
TTITLE2=Poor, Poor Pitiful Me
TTITLE3=Now That I Found You
TTITLE4=You're Easy On The Eyes
TTITLE5=Unsung Hero
TTITLE6=A Little Gasoline
TTITLE7=No Fear
TTITLE8=I Just Wanna Be Mad
TTITLE9=I Wanna Do It All
TTITLE10=Girls Lie Too
TTITLE11=The World Needs A Drink
EXTD=
EXTT0=
EXTT1=
EXTT2=
EXTT3=
EXTT4=
EXTT5=
EXTT6=
EXTT7=
EXTT8=
EXTT9=
EXTT10=
EXTT11=
PLAYORDER=
